<svg version="1.1" id="Layer_1" xmlns="http://www.w3.org/2000/svg" xmlns:xlink="http://www.w3.org/1999/xlink" x="0px" y="0px"
	 width="100%" viewBox="0 0 80 80" enable-background="new 0 0 80 80" xml:space="preserve">
<path fill="#4797B2" opacity="1.000000" stroke="none" 
	d="
M81.000000,67.000000 
	C81.000000,71.647209 81.000000,76.294418 80.999985,80.944321 
	C54.333290,80.947021 27.666615,80.947021 1.000000,80.947021 
	C1.000000,76.578773 1.000000,72.263519 1.468657,67.473984 
	C28.291544,66.999809 54.645771,66.999901 81.000000,67.000000 
z"/>
<path fill="#58ADC6" opacity="1.000000" stroke="none" 
	d="
M1.000000,24.000000 
	C1.000000,19.975075 1.000000,15.950150 1.468657,11.462635 
	C28.291544,11.000030 54.645771,11.000014 81.000000,11.000000 
	C81.000000,15.024924 81.000000,19.049849 80.531342,23.537584 
	C71.461441,24.000511 62.859722,24.053638 54.259159,23.977173 
	C50.281170,23.941809 45.912075,25.086466 43.031895,20.918560 
	C42.692020,21.237669 42.352150,21.556778 41.692665,21.970528 
	C39.990765,22.733822 38.608479,23.402473 36.743538,24.056791 
	C24.507261,24.028305 12.753631,24.014153 1.000000,24.000000 
z"/>
<path fill="#4B9CB6" opacity="1.000000" stroke="none" 
	d="
M81.000000,66.539368 
	C54.645771,66.999901 28.291544,66.999809 1.468657,66.999855 
	C1.000000,62.975456 1.000000,58.950912 1.407777,54.373894 
	C7.225650,53.642929 12.643924,53.588680 18.042387,53.233410 
	C20.731812,53.056423 23.384956,52.328121 26.338387,52.056229 
	C27.774162,53.535866 28.704327,55.179855 30.113651,56.021343 
	C39.863987,61.843174 47.797340,60.719437 56.092896,52.892048 
	C58.517864,53.790749 60.645840,54.827244 62.811420,54.912907 
	C68.865952,55.152409 74.936050,54.998589 81.000000,55.000000 
	C81.000000,58.692909 81.000000,62.385818 81.000000,66.539368 
z"/>
<path fill="#5BB1C9" opacity="1.000000" stroke="none" 
	d="
M81.000000,10.513435 
	C54.645771,11.000014 28.291544,11.000030 1.468657,11.000022 
	C1.000000,7.682517 1.000000,4.365034 1.000006,1.041193 
	C27.666681,1.034835 54.333351,1.034835 81.000000,1.034835 
	C81.000000,4.055404 81.000000,7.041137 81.000000,10.513435 
z"/>
<path fill="#53A7C0" opacity="1.000000" stroke="none" 
	d="
M42.012276,21.875887 
	C42.352150,21.556778 42.692020,21.237669 43.031895,20.918560 
	C45.912075,25.086466 50.281170,23.941809 54.259159,23.977173 
	C62.859722,24.053638 71.461441,24.000511 80.531342,24.000198 
	C81.000000,29.688040 81.000000,35.376080 80.531418,41.531952 
	C72.433167,41.669525 64.803505,41.339264 57.089817,40.643036 
	C55.618031,35.870544 53.860672,31.725969 49.495872,29.061295 
	C47.375031,37.151878 43.853622,43.501808 35.429131,46.396557 
	C33.939953,38.615425 35.442791,32.124096 39.772564,26.189901 
	C40.716637,24.896000 41.275826,23.321276 42.012276,21.875887 
z"/>
<path fill="#53A7C0" opacity="1.000000" stroke="none" 
	d="
M1.000000,24.466862 
	C12.753631,24.014153 24.507261,24.028305 36.540276,24.343189 
	C32.988819,29.789337 29.157980,34.934753 24.838207,40.064793 
	C16.566181,40.032948 8.783091,40.016472 1.000000,40.000000 
	C1.000000,34.977909 1.000000,29.955816 1.000000,24.466862 
z"/>
<path fill="#4FA1BB" opacity="1.000000" stroke="none" 
	d="
M1.000000,40.464653 
	C8.783091,40.016472 16.566181,40.032948 24.760672,40.504238 
	C25.466219,44.589108 25.760365,48.219158 26.054512,51.849209 
	C23.384956,52.328121 20.731812,53.056423 18.042387,53.233410 
	C12.643924,53.588680 7.225650,53.642929 1.407777,53.910709 
	C1.000000,49.643101 1.000000,45.286201 1.000000,40.464653 
z"/>
<path fill="#4EA0BA" opacity="1.000000" stroke="none" 
	d="
M57.173843,41.009003 
	C64.803505,41.339264 72.433167,41.669525 80.531418,41.999893 
	C81.000000,46.024544 81.000000,50.049088 81.000000,54.536816 
	C74.936050,54.998589 68.865952,55.152409 62.811420,54.912907 
	C60.645840,54.827244 58.517864,53.790749 56.156925,52.537807 
	C56.352032,48.261253 56.762939,44.635128 57.173843,41.009003 
z"/>
<path fill="#FAFCFD" opacity="1.000000" stroke="none" 
	d="
M57.089821,40.643036 
	C56.762939,44.635128 56.352032,48.261253 55.877090,52.241619 
	C47.797340,60.719437 39.863987,61.843174 30.113651,56.021343 
	C28.704327,55.179855 27.774162,53.535866 26.338387,52.056229 
	C25.760365,48.219158 25.466219,44.589108 25.249607,40.519611 
	C29.157980,34.934753 32.988819,29.789337 37.022923,24.357525 
	C38.608479,23.402473 39.990765,22.733822 41.692665,21.970528 
	C41.275826,23.321276 40.716637,24.896000 39.772564,26.189901 
	C35.442791,32.124096 33.939953,38.615425 35.429131,46.396557 
	C43.853622,43.501808 47.375031,37.151878 49.495872,29.061295 
	C53.860672,31.725969 55.618031,35.870544 57.089821,40.643036 
z"/>
</svg>